PathFileType	4	(X/Y/Z)	/Users/itak/Documents/Research/Walk-IL/dataset/trc/00316_00010.trc
DataRate	CameraRate	NumFrames	NumMarkers	Units	OrigDataRate	OrigDataStartFrame	OrigNumFrames
100.000000	100.000000	4	53	mm	100.000000	474	542
Frame#	Time	RPSI			LPSI			L3			STRN			T10			C7			CLAV			RBAK			LBAK			LSHO			LUPA			LAEL			LAOL			LWTS			LWPS			LFRA			LIFD			LHPS			LHTS			RSHO			RUPA			RAEL			RAOL			RWTS			RWPS			RFRA			RIFD			RHTS			RHPS			RBHD			LFHD			RFHD			LBHD			LHIP			RHIP			RASI			LASI			LKNE			LTHI			LANK			LTIP			LTOE			LMT1			LMT5			LHEE			RKNE			RTHI			RANK			RTIP			RTOE			RMT1			RMT5			RHEE			
		X1	Y1	Z1	X2	Y2	Z2	X3	Y3	Z3	X4	Y4	Z4	X5	Y5	Z5	X6	Y6	Z6	X7	Y7	Z7	X8	Y8	Z8	X9	Y9	Z9	X10	Y10	Z10	X11	Y11	Z11	X12	Y12	Z12	X13	Y13	Z13	X14	Y14	Z14	X15	Y15	Z15	X16	Y16	Z16	X17	Y17	Z17	X18	Y18	Z18	X19	Y19	Z19	X20	Y20	Z20	X21	Y21	Z21	X22	Y22	Z22	X23	Y23	Z23	X24	Y24	Z24	X25	Y25	Z25	X26	Y26	Z26	X27	Y27	Z27	X28	Y28	Z28	X29	Y29	Z29	X30	Y30	Z30	X31	Y31	Z31	X32	Y32	Z32	X33	Y33	Z33	X34	Y34	Z34	X35	Y35	Z35	X36	Y36	Z36	X37	Y37	Z37	X38	Y38	Z38	X39	Y39	Z39	X40	Y40	Z40	X41	Y41	Z41	X42	Y42	Z42	X43	Y43	Z43	X44	Y44	Z44	X45	Y45	Z45	X46	Y46	Z46	X47	Y47	Z47	X48	Y48	Z48	X49	Y49	Z49	X50	Y50	Z50	X51	Y51	Z51	X52	Y52	Z52	X53	Y53	Z53	

475	4.74	503.8050231933594	1008.230590820312	738.34716796875	679.0593872070312	998.6972045898438	738.76416015625	594.354248046875	1067.851684570312	754.4194946289062	609.3765869140625	1253.11279296875	987.17138671875	595.2351684570312	1176.1484375	727.1023559570312	622.2315063476562	1424.474243164062	756.9274291992188	615.7953491210938	1349.231567382812	918.118896484375	540.2810668945312	1284.989135742188	713.8886108398438	724.636962890625	1380.431884765625	742.3377685546875	778.550537109375	1390.513916015625	830.34765625	848.9031982421875	1269.423095703125	814.6697387695312	863.3677978515625	1068.287841796875	850.2677612304688	801.767822265625	1046.545654296875	792.327392578125	813.5354614257812	862.7360229492188	967.385986328125	874.943603515625	844.000244140625	934.2156982421875	871.2640380859375	967.5769653320312	880.9216918945312	817.8651733398438	680.859130859375	1001.821411132812	871.8306274414062	758.1839599609375	952.8204345703125	832.9312744140625	769.7835083007812	1004.583618164062	463.6716003417969	1410.026245117188	824.4734497070312	393.6887817382812	1356.079956054688	819.0638427734375	317.3541564941406	1096.34619140625	823.4686279296875	406.12255859375	1076.01513671875	796.8627319335938	338.5155639648438	870.8523559570312	931.7984619140625	264.82861328125	875.1360473632812	887.2666015625	295.2531433105469	1033.108642578125	851.009521484375	308.8756103515625	685.5267333984375	945.0988159179688	302.3558349609375	758.7477416992188	962.8886108398438	251.7996063232422	765.9402465820312	914.400390625	559.0337524414062	1593.686889648438	786.900146484375	687.0137329101562	1621.452758789062	955.8663940429688	593.869873046875	1624.550903320312	956.8428344726562	704.6256103515625	1578.807495117188	785.7512817382812	775.3857421875	948.3639526367188	805.9996948242188	402.3688049316406	956.755126953125	842.978271484375	477.109375	957.7572021484375	960.4454345703125	730.8372802734375	953.65673828125	945.3050537109375	732.2593994140625	482.4695434570312	848.6932373046875	757.4860229492188	624.159423828125	849.374267578125	703.9013061523438	43.24602508544922	769.1717529296875	727.0243530273438	258.5865783691406	800.8497924804688	635.0877685546875	37.16007995605469	973.9921875	598.7642211914062	28.73538589477539	901.2793579101562	710.6015625	39.20886993408203	893.2406005859375	645.9912719726562	40.81025314331055	720.448486328125	434.3942260742188	482.9099731445312	855.711669921875	407.9852905273438	744.0812377929688	896.2900390625	442.3748779296875	46.15269470214844	765.019287109375	446.9016723632812	359.7028503417969	852.6552734375	531.81640625	39.96800231933594	945.100341796875	558.3606567382812	36.31434631347656	879.224853515625	441.1158142089844	34.65447998046875	871.8358764648438	478.8519592285156	40.48704147338867	704.6786499023438	
476	4.75	504.8120422363281	1008.545227050781	738.1550903320312	680.0241088867188	998.6585693359375	739.1085205078125	595.4754638671875	1067.871337890625	754.6265258789062	609.5130004882812	1253.102905273438	987.4353637695312	596.697265625	1176.159423828125	727.1409912109375	623.3472290039062	1424.469482421875	757.2890625	616.234130859375	1349.19873046875	918.4188232421875	541.8536376953125	1284.816650390625	713.7523803710938	725.8513793945312	1380.621215820312	743.2361450195312	779.300537109375	1390.76025390625	831.562255859375	849.8607177734375	1269.690185546875	816.3341674804688	863.7688598632812	1068.442504882812	851.8630981445312	802.7572021484375	1046.877319335938	793.2172241210938	812.3077392578125	862.50341796875	967.797607421875	874.1566772460938	843.8321533203125	935.2784423828125	871.1844482421875	967.6032104492188	882.3507690429688	815.935791015625	680.468017578125	1001.454345703125	870.6530151367188	757.923583984375	953.5023193359375	831.0687255859375	769.3634033203125	1004.787658691406	464.3525695800781	1409.763427734375	823.930419921875	394.5141296386719	1355.700439453125	817.9307861328125	318.8112487792969	1095.74365234375	821.6521606445312	407.8576965332031	1075.56884765625	795.9317016601562	339.5420532226562	870.43603515625	930.4561767578125	266.3038940429688	874.4295654296875	885.3603515625	296.5431823730469	1032.437744140625	849.025146484375	309.9977722167969	685.2735595703125	944.7269287109375	303.1160888671875	758.6802978515625	962.2671508789062	253.1205291748047	765.479736328125	912.9078369140625	559.5565795898438	1593.617553710938	787.0953369140625	687.064453125	1621.552612304688	956.3731079101562	593.9179077148438	1624.555908203125	957.081787109375	705.1724853515625	1578.818237304688	786.3244018554688	776.1845703125	948.2969360351562	806.5345458984375	403.0954284667969	956.8623657226562	842.6759643554688	477.5613403320312	957.7455444335938	960.1666259765625	731.2786254882812	953.5104370117188	945.7265014648438	732.5914306640625	482.3896484375	848.8384399414062	757.9594116210938	624.060546875	849.720703125	703.9896240234375	43.15921020507812	769.185302734375	727.2222900390625	258.5134887695312	800.8892211914062	635.0887451171875	37.14081954956055	973.97216796875	598.7435913085938	28.73806762695312	901.2661743164062	710.5960693359375	39.19609451293945	893.2324829101562	646.0897216796875	40.79411315917969	720.4251708984375	434.6588439941406	483.0061340332031	855.6154174804688	408.3260803222656	744.19140625	896.0743408203125	442.4003601074219	46.18904876708984	765.0120849609375	447.1142272949219	359.7837524414062	852.5736083984375	531.81591796875	39.97481155395508	945.1113891601562	558.3624877929688	36.31539154052734	879.2268676757812	441.1189575195312	34.66596221923828	871.8472900390625	478.8869323730469	40.50861740112305	704.681396484375	
477	4.76	505.7835998535156	1008.779357910156	737.9511108398438	680.9785766601562	998.609130859375	739.4368896484375	596.5717163085938	1067.87548828125	754.7860717773438	609.6677856445312	1253.086669921875	987.6810913085938	598.1004638671875	1176.18798828125	727.1752319335938	624.41845703125	1424.479614257812	757.6466064453125	616.6456298828125	1349.177124023438	918.7021484375	543.3794555664062	1284.715087890625	713.558837890625	727.0176391601562	1380.81640625	744.1045532226562	780.030029296875	1390.999145507812	832.735595703125	850.7821044921875	1269.949462890625	817.9398803710938	864.1209716796875	1068.587158203125	853.3773803710938	803.6979370117188	1047.2099609375	794.034912109375	811.0455322265625	862.2604370117188	968.082275390625	873.314453125	843.642578125	936.2182006835938	871.0563354492188	967.615478515625	883.6856689453125	813.9375610351562	680.0473022460938	1000.903137207031	869.4152221679688	757.637451171875	954.0426635742188	829.1422729492188	768.9075927734375	1004.83740234375	465.000244140625	1409.507080078125	823.4431762695312	395.3320922851562	1355.308837890625	816.8873901367188	320.4518737792969	1095.065307617188	820.0079345703125	409.7846069335938	1075.125610351562	795.1517333984375	340.8010559082031	869.9149780273438	929.2424926757812	268.0679626464844	873.60302734375	883.51123046875	298.0644836425781	1031.681518554688	847.2195434570312	311.4625854492188	684.8656005859375	944.2041015625	304.2039489746094	758.423828125	961.507080078125	254.7714996337891	764.8555297851562	911.3753051757812	560.0711669921875	1593.560424804688	787.2728271484375	687.068603515625	1621.644653320312	956.9087524414062	593.9046630859375	1624.539306640625	957.3065795898438	705.7236328125	1578.856811523438	786.9202880859375	776.9675903320312	948.2274780273438	807.0790405273438	403.77978515625	956.96337890625	842.2888793945312	478.0139465332031	957.8339233398438	959.9010620117188	731.6721801757812	953.3881225585938	946.145263671875	732.8832397460938	482.3015747070312	849.0353393554688	758.380859375	623.96142578125	850.1074829101562	704.0736694335938	43.07278060913086	769.2103271484375	727.4349975585938	258.4564208984375	800.958740234375	635.0906982421875	37.11826705932617	973.9526977539062	598.7257080078125	28.73532104492188	901.2518920898438	710.5896606445312	39.18331146240234	893.2246704101562	646.1746215820312	40.78534698486328	720.4069213867188	434.9117126464844	483.0870361328125	855.5345458984375	408.6462707519531	744.3177490234375	895.803466796875	442.4255981445312	46.22571563720703	765.0035400390625	447.3254089355469	359.8623962402344	852.4886474609375	531.8167724609375	39.98189926147461	945.1248779296875	558.3652954101562	36.31604766845703	879.2298583984375	441.118408203125	34.67746734619141	871.856201171875	478.9259948730469	40.53121948242188	704.6824951171875	
478	4.77	506.7217712402344	1008.909362792969	737.7503051757812	681.92431640625	998.5494384765625	739.7515869140625	597.647216796875	1067.866333007812	754.9025268554688	609.837646484375	1253.061889648438	987.9090576171875	599.4459228515625	1176.230712890625	727.2091064453125	625.444091796875	1424.5029296875	757.9989624023438	617.0202026367188	1349.16455078125	918.968017578125	544.8519897460938	1284.675659179688	713.3248291015625	728.138671875	1381.013427734375	744.942626953125	780.7382202148438	1391.22607421875	833.8656616210938	851.6610107421875	1270.193115234375	819.4816284179688	864.4224243164062	1068.715087890625	854.8075561523438	804.59130859375	1047.536987304688	794.7814331054688	809.7633666992188	862.0072021484375	968.2476806640625	872.4195556640625	843.4288330078125	937.0394897460938	870.8834838867188	967.6104736328125	884.9255981445312	811.8819580078125	679.5963134765625	1000.1796875	868.1279907226562	757.3237915039062	954.4476928710938	827.1677856445312	768.415771484375	1004.741149902344	465.6104431152344	1409.255615234375	823.0062255859375	396.1379089355469	1354.903686523438	815.940185546875	322.2569885253906	1094.316650390625	818.5443115234375	411.8842468261719	1074.689086914062	794.5162353515625	342.2901306152344	869.3070678710938	928.190673828125	270.1097106933594	872.6632690429688	881.7313232421875	299.8028259277344	1030.848876953125	845.5979614257812	313.2811279296875	684.3043212890625	943.526611328125	305.6249389648438	757.973876953125	960.6000366210938	256.7558898925781	764.0654296875	909.8041381835938	560.586669921875	1593.50927734375	787.4374389648438	687.0302734375	1621.725952148438	957.47265625	593.837158203125	1624.500122070312	957.5211791992188	706.2811889648438	1578.923095703125	787.5385131835938	777.7310180664062	948.1517944335938	807.6319580078125	404.43212890625	957.0584716796875	841.83349609375	478.4627380371094	958.0138549804688	959.669677734375	732.026123046875	953.2869873046875	946.5618286132812	733.1442260742188	482.2079162597656	849.2699584960938	758.7586059570312	623.8634033203125	850.5211791992188	704.1522216796875	42.98849868774414	769.2444458007812	727.6629638671875	258.4158935546875	801.0581665039062	635.09375	37.09371185302734	973.9340209960938	598.710693359375	28.72895812988281	901.2376098632812	710.5834350585938	39.17098999023438	893.2173461914062	646.2471923828125	40.78253936767578	720.3932495117188	435.1611938476562	483.1489562988281	855.4612426757812	408.9669799804688	744.4561157226562	895.4810791015625	442.4533386230469	46.26251983642578	764.9942016601562	447.5243225097656	359.9374389648438	852.4000244140625	531.8191528320312	39.98856353759766	945.13916015625	558.3695678710938	36.31624221801758	879.2340087890625	441.1158142089844	34.69063568115234	871.8615112304688	478.9698486328125	40.55462265014648	704.6814575195312	
